<svg width="147" height="234" viewBox="0 0 147 234" fill="none" xmlns="http://www.w3.org/2000/svg">
<g style="mix-blend-mode:difference">
<path d="M74.5598 233.28C52.3731 233.28 34.5598 226.987 21.1198 214.4C7.89314 201.813 0.853138 186.453 -0.000195265 168.32H10.5598C11.8398 184.107 18.0265 197.227 29.1198 207.68C40.2131 218.133 55.3598 223.36 74.5598 223.36C93.5465 223.36 108.373 218.667 119.04 209.28C129.706 199.68 135.04 185.92 135.04 168C135.04 152.64 130.346 140.16 120.96 130.56C111.573 120.96 97.9198 116.16 79.9998 116.16H63.9998V106.24H79.0398C95.2531 106.24 107.306 101.867 115.2 93.12C123.306 84.16 127.36 73.0667 127.36 59.84C127.36 45.3334 122.88 33.3867 113.92 24C105.173 14.6134 92.9065 9.92002 77.1198 9.92002C60.9065 9.92002 47.6798 14.72 37.4398 24.32C27.1998 33.7067 21.1198 45.76 19.1998 60.48H8.95981C10.2398 42.9867 17.1731 28.5867 29.7598 17.28C42.3465 5.76002 58.1331 1.90735e-05 77.1198 1.90735e-05C95.8931 1.90735e-05 110.826 5.65336 121.92 16.96C133.226 28.2667 138.88 42.4534 138.88 59.52C138.88 71.8934 135.36 82.7734 128.32 92.16C121.493 101.333 112.213 107.413 100.48 110.4C114.56 113.173 125.76 119.573 134.08 129.6C142.613 139.627 146.88 152.427 146.88 168C146.88 188.267 140.266 204.267 127.04 216C113.813 227.52 96.3198 233.28 74.5598 233.28Z" fill="white"/>
</g>
</svg>
