<svg width="1128" height="157" viewBox="0 0 1128 157" fill="none" xmlns="http://www.w3.org/2000/svg">
<path d="M1.49012e-07 9.51197H5.084L52.48 121.032L101.352 9.51197H106.272V126.772H103.156V12.792L53.136 126.772H51.66L3.116 12.792V126.772H1.49012e-07V9.51197ZM160.507 127.92C151.214 127.92 143.943 125.843 138.695 121.688C133.447 117.533 130.823 111.739 130.823 104.304C130.823 87.3573 143.178 78.884 167.887 78.884H192.323V69.864C192.323 60.352 190.246 53.4093 186.091 49.036C181.937 44.6626 175.431 42.476 166.575 42.476C158.922 42.476 152.471 44.28 147.223 47.888C142.085 51.3866 138.859 56.744 137.547 63.96H134.759C135.743 56.1973 139.187 50.2386 145.091 46.084C151.105 41.9293 158.266 39.852 166.575 39.852C185.709 39.852 195.275 49.856 195.275 69.864V126.772H192.323V111.028C189.918 115.839 185.927 119.884 180.351 123.164C174.775 126.335 168.161 127.92 160.507 127.92ZM140.663 119.884C145.365 123.492 151.979 125.296 160.507 125.296C169.035 125.296 176.47 122.945 182.811 118.244C189.153 113.543 192.323 108.076 192.323 101.844V81.508H167.887C162.749 81.508 158.266 81.836 154.439 82.492C150.722 83.148 147.223 84.296 143.943 85.936C140.663 87.4666 138.149 89.7626 136.399 92.824C134.65 95.8853 133.775 99.712 133.775 104.304C133.775 111.083 136.071 116.276 140.663 119.884ZM224.41 81.344L272.462 41H276.398L228.51 81.344L278.858 126.772H274.758L224.41 81.344ZM220.638 -3.74317e-05H223.59V126.772H220.638V-3.74317e-05ZM317.952 128.248C308.44 128.248 300.842 125.843 295.156 121.032C289.58 116.221 286.41 109.88 285.644 102.008H288.432C289.416 109.115 292.368 114.855 297.288 119.228C302.318 123.492 309.206 125.624 317.952 125.624C325.824 125.624 332.056 123.656 336.648 119.72C341.24 115.675 343.536 110.7 343.536 104.796C343.536 98.236 341.787 93.5893 338.288 90.856C334.79 88.0133 328.12 85.7173 318.28 83.968C307.675 82.1093 300.131 79.6493 295.648 76.588C291.166 73.4173 288.924 68.3333 288.924 61.336C288.924 55.104 291.494 50.02 296.632 46.084C301.88 42.0386 308.495 40.016 316.476 40.016C333.095 40.016 342.552 47.1773 344.848 61.5H342.06C339.655 48.9266 331.072 42.64 316.312 42.64C308.987 42.64 303.028 44.3346 298.436 47.724C293.954 51.1133 291.712 55.6506 291.712 61.336C291.712 67.3493 293.735 71.7773 297.78 74.62C301.826 77.3533 308.932 79.5946 319.1 81.344C329.05 83.2026 336.102 85.772 340.256 89.052C344.52 92.332 346.652 97.58 346.652 104.796C346.652 111.356 344.028 116.932 338.78 121.524C333.532 126.007 326.59 128.248 317.952 128.248ZM391.319 121.032L357.043 41H360.159L392.959 117.588L424.611 41H427.727L379.675 156.62H376.559L391.319 121.032ZM445.177 41H448.129V61.008C450.206 54.9946 453.978 49.9653 459.445 45.92C465.021 41.8746 471.581 39.852 479.125 39.852C494.869 39.852 504.053 47.4506 506.677 62.648C508.973 55.8693 512.963 50.4026 518.649 46.248C524.334 41.984 530.949 39.852 538.493 39.852C557.407 39.852 566.865 50.7853 566.865 72.652V126.772H563.913V72.652C563.913 62.0466 561.781 54.3933 557.517 49.692C553.253 44.8813 546.911 42.476 538.493 42.476C530.293 42.476 523.077 45.3733 516.845 51.168C510.613 56.9626 507.497 64.8346 507.497 74.784V126.772H504.545V72.652C504.545 62.0466 502.413 54.3933 498.149 49.692C493.885 44.8813 487.543 42.476 479.125 42.476C470.925 42.476 463.709 45.3733 457.477 51.168C451.245 56.9626 448.129 64.8346 448.129 74.784V126.772H445.177V41ZM631.656 9.51197H636.74L684.136 121.032L733.008 9.51197H737.928V126.772H734.812V12.792L684.792 126.772H683.316L634.772 12.792V126.772H631.656V9.51197ZM793.312 121.032L759.036 41H762.152L794.952 117.588L826.604 41H829.72L781.668 156.62H778.552L793.312 121.032ZM869.839 127.92C860.546 127.92 853.275 125.843 848.027 121.688C842.779 117.533 840.155 111.739 840.155 104.304C840.155 87.3573 852.51 78.884 877.219 78.884H901.655V69.864C901.655 60.352 899.578 53.4093 895.423 49.036C891.269 44.6626 884.763 42.476 875.907 42.476C868.254 42.476 861.803 44.28 856.555 47.888C851.417 51.3866 848.191 56.744 846.879 63.96H844.091C845.075 56.1973 848.519 50.2386 854.423 46.084C860.437 41.9293 867.598 39.852 875.907 39.852C895.041 39.852 904.607 49.856 904.607 69.864V126.772H901.655V111.028C899.25 115.839 895.259 119.884 889.683 123.164C884.107 126.335 877.493 127.92 869.839 127.92ZM849.995 119.884C854.697 123.492 861.311 125.296 869.839 125.296C878.367 125.296 885.802 122.945 892.143 118.244C898.485 113.543 901.655 108.076 901.655 101.844V81.508H877.219C872.081 81.508 867.598 81.836 863.771 82.492C860.054 83.148 856.555 84.296 853.275 85.936C849.995 87.4666 847.481 89.7626 845.731 92.824C843.982 95.8853 843.107 99.712 843.107 104.304C843.107 111.083 845.403 116.276 849.995 119.884ZM951.946 127.92C946.151 127.92 941.614 126.225 938.334 122.836C935.163 119.337 933.578 114.089 933.578 107.092V43.624H920.458V41H933.578V21.484H936.53V41H961.786V43.624H936.53V107.092C936.53 119.228 941.668 125.296 951.946 125.296C955.991 125.296 959.654 124.695 962.934 123.492V126.116C959.982 127.319 956.319 127.92 951.946 127.92ZM986.113 81.344L1034.16 41H1038.1L990.213 81.344L1040.56 126.772H1036.46L986.113 81.344ZM982.341 -3.74317e-05H985.293V126.772H982.341V-3.74317e-05ZM1087.4 125.296C1097.68 125.296 1106.48 121.579 1113.81 114.144C1121.24 106.6 1124.96 96.7053 1124.96 84.46V83.148C1124.96 70.7933 1121.3 60.9533 1113.97 53.628C1106.75 46.3026 1098.01 42.64 1087.73 42.64C1077.34 42.64 1068.43 46.3573 1061 53.792C1053.56 61.2266 1049.85 71.0666 1049.85 83.312V84.624C1049.85 96.6506 1053.51 106.436 1060.83 113.98C1068.16 121.524 1077.02 125.296 1087.4 125.296ZM1115.94 115.784C1107.96 123.875 1098.39 127.92 1087.24 127.92C1076.09 127.92 1066.57 123.82 1058.7 115.62C1050.83 107.42 1046.89 97.088 1046.89 84.624V83.312C1046.89 70.7386 1050.88 60.4066 1058.87 52.316C1066.96 44.116 1076.58 40.016 1087.73 40.016C1098.88 40.016 1108.34 44.0066 1116.1 51.988C1123.97 59.9693 1127.91 70.356 1127.91 83.148V84.46C1127.91 97.1426 1123.92 107.584 1115.94 115.784Z" fill="black"/>
</svg>
