<svg width="9" height="7" viewBox="0 0 9 7" fill="none" xmlns="http://www.w3.org/2000/svg">
<path opacity="0.7" d="M3.49144 0.0965074C3.64125 -0.0366694 3.87881 -0.0314193 4.0215 0.108583C4.16438 0.248584 4.15838 0.470137 4.00856 0.603489L1.13194 3.14995H8.625C8.832 3.14995 9 3.30675 9 3.49995C9 3.69316 8.832 3.84996 8.625 3.84996H1.14394L4.00856 6.39659C4.15856 6.52994 4.16438 6.7515 4.0215 6.8915C3.94781 6.9636 3.849 7 3.75 7C3.657 7 3.564 6.96797 3.49144 6.9034L0.21975 3.99486C0.0780001 3.86273 0 3.68703 0 3.49995C0 3.31288 0.0780001 3.13717 0.226313 2.9991L3.49144 0.0965074Z" fill="black"/>
</svg>
