<svg width="16" height="16" viewBox="0 0 16 16" fill="none" xmlns="http://www.w3.org/2000/svg">
<g opacity="0.3" clip-path="url(#clip0_125_103)">
<path d="M7.99967 5.99967C7.46924 5.99967 6.96053 6.21039 6.58546 6.58546C6.21039 6.96053 5.99967 7.46924 5.99967 7.99967C5.99967 8.53011 6.21039 9.03882 6.58546 9.41389C6.96053 9.78896 7.46924 9.99967 7.99967 9.99967C8.53011 9.99967 9.03882 9.78896 9.41389 9.41389C9.78896 9.03882 9.99967 8.53011 9.99967 7.99967C9.99967 7.46924 9.78896 6.96053 9.41389 6.58546C9.03882 6.21039 8.53011 5.99967 7.99967 5.99967ZM7.99967 4.66634C8.88373 4.66634 9.73158 5.01753 10.3567 5.64265C10.9818 6.26777 11.333 7.11562 11.333 7.99967C11.333 8.88373 10.9818 9.73158 10.3567 10.3567C9.73158 10.9818 8.88373 11.333 7.99967 11.333C7.11562 11.333 6.26777 10.9818 5.64265 10.3567C5.01753 9.73158 4.66634 8.88373 4.66634 7.99967C4.66634 7.11562 5.01753 6.26777 5.64265 5.64265C6.26777 5.01753 7.11562 4.66634 7.99967 4.66634ZM12.333 4.49967C12.333 4.72069 12.2452 4.93265 12.0889 5.08893C11.9326 5.24521 11.7207 5.33301 11.4997 5.33301C11.2787 5.33301 11.0667 5.24521 10.9104 5.08893C10.7541 4.93265 10.6663 4.72069 10.6663 4.49967C10.6663 4.27866 10.7541 4.0667 10.9104 3.91042C11.0667 3.75414 11.2787 3.66634 11.4997 3.66634C11.7207 3.66634 11.9326 3.75414 12.0889 3.91042C12.2452 4.0667 12.333 4.27866 12.333 4.49967ZM7.99967 2.66634C6.35034 2.66634 6.08101 2.67101 5.31367 2.70501C4.79101 2.72967 4.44034 2.79967 4.11501 2.92634C3.82567 3.03834 3.61701 3.17234 3.39501 3.39501C3.18635 3.59661 3.02591 3.84273 2.92567 4.11501C2.79901 4.44167 2.72901 4.79167 2.70501 5.31367C2.67034 6.04967 2.66634 6.30701 2.66634 7.99967C2.66634 9.64901 2.67101 9.91834 2.70501 10.6857C2.72967 11.2077 2.79967 11.559 2.92567 11.8837C3.03901 12.1737 3.17234 12.3823 3.39367 12.6037C3.61834 12.8277 3.82701 12.9617 4.11367 13.0723C4.44301 13.1997 4.79367 13.2703 5.31367 13.2943C6.04967 13.329 6.30701 13.333 7.99967 13.333C9.64901 13.333 9.91834 13.3283 10.6857 13.2943C11.207 13.2697 11.5583 13.1997 11.8837 13.0737C12.1723 12.961 12.3823 12.827 12.6037 12.6057C12.8283 12.381 12.9623 12.1723 13.073 11.8857C13.1997 11.557 13.2703 11.2057 13.2943 10.6857C13.329 9.94967 13.333 9.69234 13.333 7.99967C13.333 6.35034 13.3283 6.08101 13.2943 5.31367C13.2697 4.79234 13.1997 4.44034 13.073 4.11501C12.9725 3.84301 12.8124 3.59698 12.6043 3.39501C12.4028 3.18624 12.1567 3.02579 11.8843 2.92567C11.5577 2.79901 11.207 2.72901 10.6857 2.70501C9.94967 2.67034 9.69234 2.66634 7.99967 2.66634ZM7.99967 1.33301C9.81101 1.33301 10.037 1.33967 10.7477 1.37301C11.4577 1.40634 11.941 1.51767 12.3663 1.68301C12.8063 1.85234 13.177 2.08167 13.5477 2.45167C13.8867 2.78494 14.149 3.18807 14.3163 3.63301C14.481 4.05767 14.593 4.54167 14.6263 5.25167C14.6577 5.96234 14.6663 6.18834 14.6663 7.99967C14.6663 9.81101 14.6597 10.037 14.6263 10.7477C14.593 11.4577 14.481 11.941 14.3163 12.3663C14.1495 12.8115 13.8871 13.2148 13.5477 13.5477C13.2143 13.8866 12.8112 14.1488 12.3663 14.3163C11.9417 14.481 11.4577 14.593 10.7477 14.6263C10.037 14.6577 9.81101 14.6663 7.99967 14.6663C6.18834 14.6663 5.96234 14.6597 5.25167 14.6263C4.54167 14.593 4.05834 14.481 3.63301 14.3163C3.18789 14.1493 2.78469 13.887 2.45167 13.5477C2.11261 13.2145 1.8503 12.8113 1.68301 12.3663C1.51767 11.9417 1.40634 11.4577 1.37301 10.7477C1.34167 10.037 1.33301 9.81101 1.33301 7.99967C1.33301 6.18834 1.33967 5.96234 1.37301 5.25167C1.40634 4.54101 1.51767 4.05834 1.68301 3.63301C1.84983 3.18779 2.11221 2.78456 2.45167 2.45167C2.78479 2.1125 3.18796 1.85016 3.63301 1.68301C4.05834 1.51767 4.54101 1.40634 5.25167 1.37301C5.96234 1.34167 6.18834 1.33301 7.99967 1.33301Z" fill="black"/>
</g>
<defs>
<clipPath id="clip0_125_103">
<rect width="16" height="16" fill="white"/>
</clipPath>
</defs>
</svg>
