<svg width="90" height="23" viewBox="0 0 90 23" fill="none" xmlns="http://www.w3.org/2000/svg">
<mask id="mask0_138_2074" style="mask-type:alpha" maskUnits="userSpaceOnUse" x="0" y="0" width="90" height="23">
<rect width="90" height="22.4688" fill="black"/>
</mask>
<g mask="url(#mask0_138_2074)">
<path fill-rule="evenodd" clip-rule="evenodd" d="M57.5668 0.342896C58.1094 0.489964 58.2644 0.882146 58.3161 1.37237C58.5228 3.43133 58.7554 5.49029 58.9879 7.54925C59.1946 9.36309 59.3755 11.1769 59.5563 12.9908C59.763 14.8046 59.9439 16.6185 60.1506 18.4323C60.2281 19.2412 60.3314 20.0746 60.4089 20.8834C60.4606 21.4717 60.1506 21.7904 59.5305 21.7904C58.2128 21.7904 56.8951 21.7904 55.5515 21.7904C54.9573 21.7904 54.7247 21.5943 54.6472 21.0305C54.4664 19.4618 54.2855 17.8931 54.1046 16.3243C53.8979 14.584 53.7171 12.8437 53.5104 11.1034C53.4845 10.8338 53.4587 10.5887 53.3554 10.2945C53.3295 10.3681 53.3037 10.4661 53.2778 10.5396C52.1927 14.0448 51.1333 17.5499 50.074 21.055C49.8932 21.6433 49.6865 21.7904 49.0405 21.7904C47.9295 21.7904 46.8185 21.7904 45.7333 21.7904C45.0874 21.7904 44.8807 21.6433 44.6999 21.055C43.6405 17.5499 42.5554 14.0448 41.496 10.5396C41.4702 10.4661 41.4444 10.3926 41.3668 10.319C41.3152 10.6622 41.2635 11.0054 41.2377 11.324C40.9018 14.3144 40.5659 17.3293 40.23 20.3197C40.2042 20.5893 40.1783 20.8589 40.1266 21.1286C40.0491 21.5453 39.8166 21.7659 39.3774 21.7659C37.9821 21.7904 36.5611 21.7904 35.1659 21.7659C34.6233 21.7659 34.3391 21.3982 34.3908 20.8589C34.6233 18.6774 34.8817 16.4959 35.1142 14.3144C35.3209 12.3045 35.5276 10.2945 35.7601 8.28459C35.9927 6.10307 36.251 3.89705 36.4836 1.71553C36.5094 1.56847 36.5094 1.44591 36.5094 1.29884C36.5353 0.833123 36.7161 0.465452 37.2329 0.342896C39.0415 0.342896 40.8759 0.342896 42.6845 0.342896C43.0979 0.440941 43.3046 0.710566 43.408 1.10275C44.4673 4.46081 45.5266 7.81887 46.586 11.1524C46.8444 12.0103 47.1286 12.8437 47.4128 13.7751C47.4903 13.6036 47.5161 13.5055 47.5678 13.383C48.8597 9.31406 50.1515 5.24517 51.4434 1.15177C51.5726 0.759589 51.7534 0.465452 52.1927 0.342896C53.9238 0.342896 55.7582 0.342896 57.5668 0.342896Z" fill="white"/>
<path fill-rule="evenodd" clip-rule="evenodd" d="M86.2193 0.342896C86.7619 0.465452 86.9169 0.857635 86.9686 1.34786C87.1495 3.16171 87.3562 4.97555 87.5629 6.78939C87.7437 8.40714 87.8988 10.0249 88.0796 11.6426C88.2605 13.2604 88.4413 14.9027 88.6222 16.5204C88.7772 17.9176 88.9322 19.3147 89.0873 20.7364C89.0873 20.8099 89.0873 20.8834 89.0873 20.9325C89.0873 21.4472 88.8289 21.7659 88.2863 21.7659C86.9169 21.7904 85.5476 21.7659 84.1524 21.7659C83.6614 21.7659 83.3772 21.4962 83.3256 21.0305C82.9897 18.0891 82.6538 15.1478 82.3179 12.2064C82.2662 11.6672 82.1887 11.1279 82.137 10.5641C82.137 10.4661 82.1112 10.3681 82.0337 10.2945C81.7236 11.324 81.4136 12.3535 81.0777 13.383C80.3026 15.9321 79.5275 18.5058 78.7265 21.055C78.5457 21.6433 78.3648 21.7659 77.693 21.7659C76.582 21.7659 75.471 21.7659 74.3858 21.7659C73.7399 21.7659 73.5332 21.6188 73.3523 21.0305C72.293 17.5499 71.2337 14.0693 70.1744 10.5887C70.1485 10.4906 70.0968 10.3926 70.0193 10.2945C69.9677 10.6867 69.916 11.0544 69.8901 11.4466C69.5801 14.0938 69.2959 16.7165 69.0117 19.3637C68.96 19.903 68.8825 20.4667 68.8308 21.006C68.7791 21.5207 68.4949 21.7659 67.9265 21.7904C66.583 21.7904 65.2653 21.7904 63.9217 21.7904C63.2758 21.7904 62.9916 21.4472 63.0691 20.8344C63.3275 18.4323 63.5858 16.0302 63.8442 13.6036C64.1026 11.226 64.361 8.82384 64.6193 6.44623C64.8002 4.70592 65.0069 2.96561 65.1878 1.22531C65.2394 0.784101 65.4461 0.514475 65.8854 0.367407C67.694 0.367407 69.5284 0.367407 71.337 0.367407C71.8021 0.465452 71.983 0.784101 72.1122 1.20079C73.2232 4.70592 74.3342 8.21105 75.4452 11.7162C75.6519 12.378 75.8586 13.0643 76.0911 13.7261C76.1945 13.6281 76.2203 13.53 76.272 13.432C77.5638 9.36309 78.8557 5.2942 80.1217 1.20079C80.2509 0.808612 80.4318 0.514475 80.8452 0.367407C82.5763 0.342896 84.3849 0.342896 86.2193 0.342896Z" fill="white"/>
<path fill-rule="evenodd" clip-rule="evenodd" d="M13.5381 0.34259C13.9773 0.440636 14.1582 0.734773 14.3132 1.10244C16.9744 7.62247 19.6357 14.118 22.2969 20.6135C22.4778 21.0792 22.452 21.3979 22.1419 21.594C21.9869 21.692 21.7543 21.7656 21.5735 21.7656C20.1783 21.7901 18.8089 21.7656 17.4137 21.7656C16.9228 21.7656 16.7161 21.594 16.561 21.1528C16.251 20.3194 15.9409 19.486 15.6309 18.6281C15.5534 18.4075 15.45 18.334 15.1917 18.334C12.7113 18.334 10.2051 18.334 7.72468 18.334C7.51798 18.334 7.3888 18.383 7.33712 18.6036C7.05291 19.437 6.74286 20.2458 6.43282 21.0792C6.20028 21.6675 6.04526 21.7901 5.37349 21.7901C4.1333 21.7901 2.91894 21.7656 1.67875 21.7901C1.13617 21.7901 0.696933 21.7165 0.490234 21.1773C0.490234 21.1528 0.490234 21.1283 0.490234 21.1283C0.541909 20.9567 0.593584 20.7851 0.645258 20.638C3.28066 14.118 5.94191 7.62247 8.60315 1.10244C8.75817 0.759284 8.93904 0.465147 9.3266 0.34259C10.7218 0.34259 12.1429 0.34259 13.5381 0.34259ZM13.7448 13.6278C12.9697 11.5688 12.2204 9.53436 11.4711 7.52443C11.4453 7.52443 11.4194 7.52443 11.3936 7.52443C10.6443 9.55888 9.89502 11.5688 9.1199 13.6278C10.7218 13.6278 12.2204 13.6278 13.7448 13.6278Z" fill="white"/>
<path fill-rule="evenodd" clip-rule="evenodd" d="M30.2309 0.342896C30.8251 0.489964 30.9801 0.882146 30.9801 1.4214C30.9801 7.84338 30.9801 14.2899 30.9801 20.7119C30.9801 20.7609 30.9801 20.8344 30.9801 20.8834C30.9801 21.4717 30.6959 21.7413 30.0758 21.7659C29.3782 21.7659 28.6806 21.7659 28.0088 21.7659C27.3371 21.7659 26.6911 21.7659 26.0194 21.7659C25.2701 21.7659 25.0117 21.4962 25.0117 20.8099C25.0117 17.9911 25.0117 15.1723 25.0117 12.378C25.0117 8.72579 25.0117 5.0736 25.0117 1.44591C25.0117 0.906658 25.1409 0.514475 25.7352 0.342896C27.2079 0.342896 28.7065 0.342896 30.2309 0.342896Z" fill="white"/>
</g>
</svg>
