<svg width="76" height="19" viewBox="0 0 76 19" fill="none" xmlns="http://www.w3.org/2000/svg">
<g clip-path="url(#clip0_204_1204)">
<path fill-rule="evenodd" clip-rule="evenodd" d="M48.6131 0.596161C49.0713 0.717652 49.2022 1.04163 49.2458 1.4466C49.4204 3.14748 49.6167 4.84835 49.8131 6.54923C49.9877 8.04762 50.1404 9.546 50.2931 11.0444C50.4677 12.5428 50.6204 14.0412 50.795 15.5396C50.8604 16.2078 50.9476 16.8963 51.0131 17.5644C51.0567 18.0504 50.7949 18.3137 50.2713 18.3137C49.1585 18.3137 48.0458 18.3137 46.9113 18.3137C46.4094 18.3137 46.2131 18.1517 46.1476 17.6859C45.9949 16.3901 45.8422 15.0941 45.6895 13.7982C45.5149 12.3606 45.3622 10.9229 45.1877 9.48529C45.1658 9.26257 45.144 9.06002 45.0567 8.81707C45.0349 8.87778 45.0131 8.95882 44.9913 9.01954C44.075 11.9151 43.1804 14.8107 42.2858 17.7062C42.1331 18.1922 41.9585 18.3137 41.4131 18.3137C40.4749 18.3137 39.5367 18.3137 38.6204 18.3137C38.0749 18.3137 37.9004 18.1922 37.7476 17.7062C36.8531 14.8107 35.9367 11.9151 35.0422 9.01954C35.0204 8.95882 34.9985 8.8981 34.9331 8.8373C34.8894 9.12082 34.8459 9.40425 34.824 9.66752C34.5403 12.1379 34.2568 14.6284 33.9731 17.0988C33.9513 17.3215 33.9295 17.5442 33.8858 17.7669C33.8204 18.1111 33.624 18.2934 33.2531 18.2934C32.0749 18.3137 30.8749 18.3137 29.6968 18.2934C29.2386 18.2934 28.9986 17.9897 29.0422 17.5442C29.2386 15.7421 29.4567 13.94 29.6531 12.1379C29.8277 10.4774 30.0022 8.81706 30.1985 7.15669C30.395 5.35457 30.6131 3.5322 30.8095 1.73008C30.8313 1.60859 30.8313 1.50734 30.8313 1.38585C30.8531 1.00113 31.0058 0.697404 31.4422 0.596161C32.9695 0.596161 34.5186 0.596161 36.0458 0.596161C36.3949 0.677155 36.5695 0.899888 36.6568 1.22386C37.5513 3.99791 38.4458 6.77196 39.3404 9.52577C39.5585 10.2345 39.7985 10.9229 40.0385 11.6923C40.104 11.5506 40.1258 11.4696 40.1695 11.3684C41.2603 8.00713 42.3513 4.64587 43.4422 1.26437C43.5513 0.940383 43.704 0.697404 44.075 0.596161C45.5368 0.596161 47.0858 0.596161 48.6131 0.596161Z" fill="black"/>
<path fill-rule="evenodd" clip-rule="evenodd" d="M72.8086 0.596161C73.2668 0.697404 73.3977 1.02138 73.4413 1.42635C73.5941 2.92474 73.7686 4.42313 73.9431 5.92153C74.0959 7.25793 74.2268 8.59435 74.3795 9.93071C74.5323 11.2672 74.685 12.6238 74.8377 13.9602C74.9686 15.1144 75.0995 16.2685 75.2304 17.443C75.2304 17.5037 75.2304 17.5644 75.2304 17.605C75.2304 18.0302 75.0123 18.2934 74.5541 18.2934C73.3977 18.3137 72.2413 18.2934 71.0631 18.2934C70.6486 18.2934 70.4086 18.0706 70.3649 17.6859C70.0813 15.2561 69.7977 12.8263 69.5141 10.3965C69.4704 9.95095 69.405 9.50553 69.3613 9.03978C69.3613 8.95882 69.3395 8.87778 69.2741 8.81707C69.0122 9.66752 68.7505 10.518 68.4668 11.3684C67.8123 13.4742 67.1577 15.6003 66.4813 17.7062C66.3286 18.1922 66.1759 18.2934 65.6086 18.2934C64.6704 18.2934 63.7323 18.2934 62.8159 18.2934C62.2704 18.2934 62.0959 18.1719 61.9431 17.6859C61.0486 14.8107 60.1541 11.9354 59.2595 9.06002C59.2377 8.97906 59.194 8.8981 59.1286 8.81707C59.0849 9.14106 59.0414 9.44481 59.0195 9.76872C58.7577 11.9556 58.5177 14.1222 58.2777 16.309C58.2341 16.7545 58.1686 17.2202 58.125 17.6657C58.0813 18.0909 57.8413 18.2934 57.3613 18.3137C56.2267 18.3137 55.114 18.3137 53.9795 18.3137C53.4341 18.3137 53.1941 18.0302 53.2595 17.5239C53.4777 15.5396 53.6959 13.5553 53.9141 11.5506C54.1323 9.58648 54.3504 7.60215 54.5686 5.63805C54.7214 4.2004 54.8959 2.76276 55.0486 1.32511C55.0922 0.96063 55.2668 0.7379 55.6377 0.616409C57.165 0.616409 58.7141 0.616409 60.2413 0.616409C60.6341 0.697404 60.7867 0.96063 60.8959 1.30486C61.834 4.2004 62.7722 7.09595 63.7104 9.99151C63.8849 10.5382 64.0595 11.1052 64.2559 11.6519C64.3431 11.5709 64.365 11.4899 64.4086 11.4089C65.4995 8.04762 66.5905 4.68637 67.6595 1.30486C67.7686 0.980886 67.9213 0.7379 68.2704 0.616409C69.7322 0.596161 71.2596 0.596161 72.8086 0.596161Z" fill="black"/>
<path fill-rule="evenodd" clip-rule="evenodd" d="M11.4333 0.595764C11.8041 0.676759 11.9569 0.919738 12.0878 1.22347C14.335 6.60959 16.5823 11.9755 18.8296 17.3413C18.9823 17.726 18.9605 17.9893 18.6987 18.1513C18.5678 18.2322 18.3714 18.293 18.2187 18.293C17.0405 18.3133 15.8842 18.293 14.706 18.293C14.2914 18.293 14.1168 18.1513 13.9859 17.7868C13.7242 17.0983 13.4623 16.4099 13.2005 15.7012C13.1351 15.519 13.0478 15.4582 12.8295 15.4582C10.7351 15.4582 8.61864 15.4582 6.52413 15.4582C6.34958 15.4582 6.24049 15.4987 6.19686 15.6809C5.95686 16.3694 5.69504 17.0375 5.43322 17.726C5.23686 18.212 5.10594 18.3133 4.53867 18.3133C3.4914 18.3133 2.46595 18.293 1.41868 18.3133C0.96049 18.3133 0.589584 18.2525 0.415039 17.807C0.415039 17.7868 0.415039 17.7666 0.415039 17.7666C0.458676 17.6248 0.502312 17.4831 0.545948 17.3615C2.7714 11.9755 5.01867 6.60959 7.26595 1.22347C7.39685 0.939994 7.54958 0.697007 7.87685 0.595764C9.05505 0.595764 10.255 0.595764 11.4333 0.595764ZM11.6078 11.5705C10.9532 9.86959 10.3205 8.18897 9.68779 6.52859C9.66592 6.52859 9.64413 6.52859 9.62235 6.52859C8.9896 8.20922 8.35685 9.86959 7.70231 11.5705C9.05505 11.5705 10.3205 11.5705 11.6078 11.5705Z" fill="black"/>
<path fill-rule="evenodd" clip-rule="evenodd" d="M25.5293 0.596161C26.0312 0.717652 26.1621 1.04163 26.1621 1.4871C26.1621 6.79222 26.1621 12.1176 26.1621 17.4227C26.1621 17.4632 26.1621 17.5239 26.1621 17.5644C26.1621 18.0504 25.9221 18.2731 25.3984 18.2934C24.8093 18.2934 24.2203 18.2934 23.653 18.2934C23.0857 18.2934 22.5402 18.2934 21.9729 18.2934C21.3403 18.2934 21.1221 18.0706 21.1221 17.5037C21.1221 15.1751 21.1221 12.8465 21.1221 10.5382C21.1221 7.52116 21.1221 4.50413 21.1221 1.50734C21.1221 1.06188 21.2312 0.7379 21.7329 0.596161C22.9766 0.596161 24.242 0.596161 25.5293 0.596161Z" fill="black"/>
</g>
<defs>
<clipPath id="clip0_204_1204">
<rect width="76" height="19" fill="white"/>
</clipPath>
</defs>
</svg>
