<svg width="15" height="15" viewBox="0 0 15 15" fill="none" xmlns="http://www.w3.org/2000/svg">
<g clip-path="url(#clip0_135_2022)">
<path d="M12.8822 7.20588L2.52486 0.0628519C2.41521 -0.0125071 2.27307 -0.0203644 2.15592 0.0407085C2.03842 0.102496 1.96484 0.223927 1.96484 0.356787V14.6428C1.96484 14.7757 2.03842 14.8975 2.15592 14.9593C2.20806 14.9864 2.26521 15 2.322 15C2.39307 15 2.46378 14.9786 2.52486 14.9368L12.8822 7.79375C12.979 7.72696 13.0365 7.61732 13.0365 7.49981C13.0365 7.38231 12.9787 7.27267 12.8822 7.20588ZM2.67915 13.9628V1.03716L12.0504 7.50017L2.67915 13.9628Z" fill="black" stroke="black" stroke-width="0.2"/>
</g>
<defs>
<clipPath id="clip0_135_2022">
<rect width="15" height="15" fill="white"/>
</clipPath>
</defs>
</svg>
