<svg width="1440" height="168" viewBox="0 0 1440 168" fill="none" xmlns="http://www.w3.org/2000/svg">
<mask id="mask0_124_163" style="mask-type:alpha" maskUnits="userSpaceOnUse" x="0" y="0" width="1440" height="168">
<rect width="96" height="168" fill="url(#paint0_linear_124_163)"/>
<rect x="1440" y="168" width="96" height="168" transform="rotate(-180 1440 168)" fill="url(#paint1_linear_124_163)"/>
<rect x="96" width="1248" height="168" fill="#D9D9D9"/>
</mask>
<g mask="url(#mask0_124_163)">
<path d="M-185.808 19.736H-225.792V16.88H-142.632V19.736H-182.616V137H-185.808V19.736ZM-126.06 7.13599H-123.036V70.136C-120.908 64.088 -116.708 58.88 -110.436 54.512C-104.052 50.144 -96.8284 47.96 -88.7644 47.96C-78.7964 47.96 -71.0684 50.816 -65.5804 56.528C-59.9804 62.24 -57.1804 70.976 -57.1804 82.736V137H-60.2044V82.736C-60.2044 71.872 -62.7244 63.808 -67.7644 58.544C-72.6924 53.28 -79.6924 50.648 -88.7644 50.648C-97.7244 50.648 -105.676 53.616 -112.62 59.552C-119.564 65.488 -123.036 73.552 -123.036 83.744V137H-126.06V7.13599ZM0.851816 138.176C-11.9162 138.176 -21.8842 134.088 -29.0522 125.912C-36.1082 117.736 -39.6362 107.04 -39.6362 93.824V92.48C-39.6362 79.488 -35.9402 68.848 -28.5482 60.56C-21.1562 52.16 -11.7482 47.96 -0.324184 47.96C10.8758 47.96 19.8358 51.712 26.5558 59.216C33.3878 66.608 36.8038 76.8 36.8038 89.792V91.64H-36.6122C-36.6122 105.528 -33.4202 116.336 -27.0362 124.064C-20.5402 131.68 -11.2442 135.488 0.851816 135.488C8.91582 135.488 15.8038 133.584 21.5158 129.776C27.2278 125.968 31.0918 120.48 33.1078 113.312H36.1318C33.8918 121.264 29.6358 127.424 23.3638 131.792C17.2038 136.048 9.69982 138.176 0.851816 138.176ZM33.7798 88.952C33.5558 76.632 30.3638 67.168 24.2038 60.56C18.1558 53.952 9.97982 50.648 -0.324184 50.648C-10.5162 50.648 -19.0282 54.176 -25.8602 61.232C-32.5802 68.176 -36.1642 77.416 -36.6122 88.952H33.7798ZM90.8526 7.13599H93.8766V70.136C96.0046 64.088 100.205 58.88 106.477 54.512C112.861 50.144 120.085 47.96 128.149 47.96C138.117 47.96 145.845 50.816 151.333 56.528C156.933 62.24 159.733 70.976 159.733 82.736V137H156.709V82.736C156.709 71.872 154.189 63.808 149.149 58.544C144.221 53.28 137.221 50.648 128.149 50.648C119.189 50.648 111.237 53.616 104.293 59.552C97.3486 65.488 93.8766 73.552 93.8766 83.744V137H90.8526V7.13599ZM184.165 49.136H187.189V137H184.165V49.136ZM185.677 29.648C183.773 29.648 182.821 28.696 182.821 26.792C182.821 24.888 183.773 23.936 185.677 23.936C187.581 23.936 188.533 24.888 188.533 26.792C188.533 28.696 187.581 29.648 185.677 29.648ZM246.432 168.08C234.784 168.08 225.656 165.56 219.048 160.52C212.44 155.592 208.632 149.432 207.624 142.04H210.648C212.104 148.984 215.744 154.584 221.568 158.84C227.392 163.208 235.624 165.392 246.264 165.392C257.24 165.392 265.976 162.648 272.472 157.16C278.968 151.672 282.216 143.048 282.216 131.288V107.432C279.976 114.6 275.552 120.872 268.944 126.248C262.448 131.512 254.496 134.144 245.088 134.144C233.776 134.144 224.368 130.392 216.864 122.888C209.472 115.384 205.776 105.024 205.776 91.808V90.464C205.776 77.696 209.64 67.448 217.368 59.72C225.208 51.88 234.896 47.96 246.432 47.96C264.016 47.96 275.944 56.584 282.216 73.832V49.136H285.24V131.288C285.24 143.832 281.712 153.072 274.656 159.008C267.6 165.056 258.192 168.08 246.432 168.08ZM245.088 131.456C255.392 131.456 264.128 127.872 271.296 120.704C278.576 113.424 282.216 103.792 282.216 91.808V90.464C282.216 78.256 278.8 68.568 271.968 61.4C265.248 54.232 256.736 50.648 246.432 50.648C235.904 50.648 227 54.232 219.72 61.4C212.44 68.456 208.8 78.144 208.8 90.464V91.808C208.8 104.016 212.16 113.704 218.88 120.872C225.712 127.928 234.448 131.456 245.088 131.456ZM310.062 7.13599H313.086V70.136C315.214 64.088 319.414 58.88 325.686 54.512C332.07 50.144 339.294 47.96 347.358 47.96C357.326 47.96 365.054 50.816 370.542 56.528C376.142 62.24 378.942 70.976 378.942 82.736V137H375.918V82.736C375.918 71.872 373.398 63.808 368.358 58.544C363.43 53.28 356.43 50.648 347.358 50.648C338.398 50.648 330.446 53.616 323.502 59.552C316.558 65.488 313.086 73.552 313.086 83.744V137H310.062V7.13599ZM436.975 138.176C424.207 138.176 414.239 134.088 407.071 125.912C400.015 117.736 396.487 107.04 396.487 93.824V92.48C396.487 79.488 400.183 68.848 407.575 60.56C414.967 52.16 424.375 47.96 435.799 47.96C446.999 47.96 455.959 51.712 462.679 59.216C469.511 66.608 472.927 76.8 472.927 89.792V91.64H399.511C399.511 105.528 402.703 116.336 409.087 124.064C415.583 131.68 424.879 135.488 436.975 135.488C445.039 135.488 451.927 133.584 457.639 129.776C463.351 125.968 467.215 120.48 469.231 113.312H472.255C470.015 121.264 465.759 127.424 459.487 131.792C453.327 136.048 445.823 138.176 436.975 138.176ZM469.903 88.952C469.679 76.632 466.487 67.168 460.327 60.56C454.279 53.952 446.103 50.648 435.799 50.648C425.607 50.648 417.095 54.176 410.263 61.232C403.543 68.176 399.959 77.416 399.511 88.952H469.903ZM517.445 138.512C507.701 138.512 499.917 136.048 494.093 131.12C488.381 126.192 485.133 119.696 484.349 111.632H487.205C488.213 118.912 491.237 124.792 496.277 129.272C501.429 133.64 508.485 135.824 517.445 135.824C525.509 135.824 531.893 133.808 536.597 129.776C541.301 125.632 543.653 120.536 543.653 114.488C543.653 107.768 541.861 103.008 538.277 100.208C534.693 97.296 527.861 94.944 517.781 93.152C506.917 91.248 499.189 88.728 494.597 85.592C490.005 82.344 487.709 77.136 487.709 69.968C487.709 63.584 490.341 58.376 495.605 54.344C500.981 50.2 507.757 48.128 515.933 48.128C532.957 48.128 542.645 55.464 544.997 70.136H542.141C539.677 57.256 530.885 50.816 515.765 50.816C508.261 50.816 502.157 52.552 497.453 56.024C492.861 59.496 490.565 64.144 490.565 69.968C490.565 76.128 492.637 80.664 496.781 83.576C500.925 86.376 508.205 88.672 518.621 90.464C528.813 92.368 536.037 95 540.293 98.36C544.661 101.72 546.845 107.096 546.845 114.488C546.845 121.208 544.157 126.92 538.781 131.624C533.405 136.216 526.293 138.512 517.445 138.512ZM587.878 138.176C581.942 138.176 577.294 136.44 573.934 132.968C570.686 129.384 569.062 124.008 569.062 116.84V51.824H555.622V49.136H569.062V29.144H572.086V49.136H597.958V51.824H572.086V116.84C572.086 129.272 577.35 135.488 587.878 135.488C592.022 135.488 595.774 134.872 599.134 133.64V136.328C596.11 137.56 592.358 138.176 587.878 138.176ZM722.605 110.624C720.253 117.904 715.829 124.344 709.333 129.944C702.949 135.432 694.997 138.176 685.477 138.176C674.165 138.176 664.757 134.256 657.253 126.416C649.861 118.464 646.165 107.6 646.165 93.824V92.48C646.165 79.152 650.029 68.4 657.757 60.224C665.597 52.048 675.285 47.96 686.821 47.96C696.117 47.96 703.677 50.536 709.501 55.688C715.437 60.728 719.805 67.112 722.605 74.84V49.136H725.629V167.576H722.605V110.624ZM685.477 135.488C695.781 135.488 704.517 131.68 711.685 124.064C718.965 116.448 722.605 106.368 722.605 93.824V92.48C722.605 79.712 719.189 69.576 712.357 62.072C705.637 54.456 697.125 50.648 686.821 50.648C676.293 50.648 667.389 54.456 660.109 62.072C652.829 69.576 649.189 79.712 649.189 92.48V93.824C649.189 106.592 652.549 116.728 659.269 124.232C666.101 131.736 674.837 135.488 685.477 135.488ZM781.027 138.176C760.083 138.176 749.611 126.976 749.611 104.576V49.136H752.635V104.576C752.635 125.184 762.099 135.488 781.027 135.488C790.099 135.488 797.995 132.632 804.715 126.92C811.435 121.096 814.795 113.088 814.795 102.896V49.136H817.819V137H814.795V116.672C812.667 122.72 808.523 127.816 802.363 131.96C796.203 136.104 789.091 138.176 781.027 138.176ZM867.471 138.176C857.951 138.176 850.503 136.048 845.127 131.792C839.751 127.536 837.063 121.6 837.063 113.984C837.063 96.624 849.719 87.944 875.031 87.944H900.063V78.704C900.063 68.96 897.935 61.848 893.679 57.368C889.423 52.888 882.759 50.648 873.687 50.648C865.847 50.648 859.239 52.496 853.863 56.192C848.599 59.776 845.295 65.264 843.951 72.656H841.095C842.103 64.704 845.631 58.6 851.679 54.344C857.839 50.088 865.175 47.96 873.687 47.96C893.287 47.96 903.087 58.208 903.087 78.704V137H900.063V120.872C897.599 125.8 893.511 129.944 887.799 133.304C882.087 136.552 875.311 138.176 867.471 138.176ZM847.143 129.944C851.959 133.64 858.735 135.488 867.471 135.488C876.207 135.488 883.823 133.08 890.319 128.264C896.815 123.448 900.063 117.848 900.063 111.464V90.632H875.031C869.767 90.632 865.175 90.968 861.255 91.64C857.447 92.312 853.863 93.488 850.503 95.168C847.143 96.736 844.567 99.088 842.775 102.224C840.983 105.36 840.087 109.28 840.087 113.984C840.087 120.928 842.439 126.248 847.143 129.944ZM927.388 7.13599H930.412V137H927.388V7.13599ZM955.887 49.136H958.911V137H955.887V49.136ZM957.399 29.648C955.495 29.648 954.543 28.696 954.543 26.792C954.543 24.888 955.495 23.936 957.399 23.936C959.303 23.936 960.255 24.888 960.255 26.792C960.255 28.696 959.303 29.648 957.399 29.648ZM1006.56 138.176C1000.63 138.176 995.979 136.44 992.619 132.968C989.371 129.384 987.747 124.008 987.747 116.84V51.824H974.307V49.136H987.747V29.144H990.771V49.136H1016.64V51.824H990.771V116.84C990.771 129.272 996.035 135.488 1006.56 135.488C1010.71 135.488 1014.46 134.872 1017.82 133.64V136.328C1014.79 137.56 1011.04 138.176 1006.56 138.176ZM1061.72 131.12L1026.61 49.136H1029.8L1063.4 127.592L1095.83 49.136H1099.02L1049.8 167.576H1046.6L1061.72 131.12ZM1191.25 138.176C1181.51 138.176 1173.44 135.488 1167.06 130.112C1160.68 124.624 1156.2 118.072 1153.62 110.456V137H1150.6V7.13599H1153.62V76.52C1156.31 68.568 1161.01 61.848 1167.73 56.36C1174.45 50.76 1182.29 47.96 1191.25 47.96C1202.12 47.96 1211.3 52.048 1218.8 60.224C1226.31 68.4 1230.06 79.152 1230.06 92.48V93.824C1230.06 107.488 1226.31 118.296 1218.8 126.248C1211.41 134.2 1202.23 138.176 1191.25 138.176ZM1164.71 124.064C1172.1 131.68 1180.95 135.488 1191.25 135.488C1201.56 135.488 1210.07 131.736 1216.79 124.232C1223.62 116.728 1227.04 106.592 1227.04 93.824V92.48C1227.04 79.712 1223.56 69.576 1216.62 62.072C1209.68 54.456 1201.22 50.648 1191.25 50.648C1181.51 50.648 1172.77 54.512 1165.04 62.24C1157.43 69.968 1153.62 80.048 1153.62 92.48V93.824C1153.62 106.368 1157.32 116.448 1164.71 124.064ZM1273.19 138.176C1263.67 138.176 1256.23 136.048 1250.85 131.792C1245.47 127.536 1242.79 121.6 1242.79 113.984C1242.79 96.624 1255.44 87.944 1280.75 87.944H1305.79V78.704C1305.79 68.96 1303.66 61.848 1299.4 57.368C1295.15 52.888 1288.48 50.648 1279.41 50.648C1271.57 50.648 1264.96 52.496 1259.59 56.192C1254.32 59.776 1251.02 65.264 1249.67 72.656H1246.82C1247.83 64.704 1251.35 58.6 1257.4 54.344C1263.56 50.088 1270.9 47.96 1279.41 47.96C1299.01 47.96 1308.81 58.208 1308.81 78.704V137H1305.79V120.872C1303.32 125.8 1299.23 129.944 1293.52 133.304C1287.81 136.552 1281.03 138.176 1273.19 138.176ZM1252.87 129.944C1257.68 133.64 1264.46 135.488 1273.19 135.488C1281.93 135.488 1289.55 133.08 1296.04 128.264C1302.54 123.448 1305.79 117.848 1305.79 111.464V90.632H1280.75C1275.49 90.632 1270.9 90.968 1266.98 91.64C1263.17 92.312 1259.59 93.488 1256.23 95.168C1252.87 96.736 1250.29 99.088 1248.5 102.224C1246.71 105.36 1245.81 109.28 1245.81 113.984C1245.81 120.928 1248.16 126.248 1252.87 129.944ZM1358.14 138.512C1348.4 138.512 1340.62 136.048 1334.79 131.12C1329.08 126.192 1325.83 119.696 1325.05 111.632H1327.9C1328.91 118.912 1331.94 124.792 1336.98 129.272C1342.13 133.64 1349.18 135.824 1358.14 135.824C1366.21 135.824 1372.59 133.808 1377.3 129.776C1382 125.632 1384.35 120.536 1384.35 114.488C1384.35 107.768 1382.56 103.008 1378.98 100.208C1375.39 97.296 1368.56 94.944 1358.48 93.152C1347.62 91.248 1339.89 88.728 1335.3 85.592C1330.7 82.344 1328.41 77.136 1328.41 69.968C1328.41 63.584 1331.04 58.376 1336.3 54.344C1341.68 50.2 1348.46 48.128 1356.63 48.128C1373.66 48.128 1383.34 55.464 1385.7 70.136H1382.84C1380.38 57.256 1371.58 50.816 1356.46 50.816C1348.96 50.816 1342.86 52.552 1338.15 56.024C1333.56 59.496 1331.26 64.144 1331.26 69.968C1331.26 76.128 1333.34 80.664 1337.48 83.576C1341.62 86.376 1348.9 88.672 1359.32 90.464C1369.51 92.368 1376.74 95 1380.99 98.36C1385.36 101.72 1387.54 107.096 1387.54 114.488C1387.54 121.208 1384.86 126.92 1379.48 131.624C1374.1 136.216 1366.99 138.512 1358.14 138.512ZM1440 138.176C1427.23 138.176 1417.26 134.088 1410.1 125.912C1403.04 117.736 1399.51 107.04 1399.51 93.824V92.48C1399.51 79.488 1403.21 68.848 1410.6 60.56C1417.99 52.16 1427.4 47.96 1438.82 47.96C1450.02 47.96 1458.98 51.712 1465.7 59.216C1472.54 66.608 1475.95 76.8 1475.95 89.792V91.64H1402.54C1402.54 105.528 1405.73 116.336 1412.11 124.064C1418.61 131.68 1427.9 135.488 1440 135.488C1448.06 135.488 1454.95 133.584 1460.66 129.776C1466.38 125.968 1470.24 120.48 1472.26 113.312H1475.28C1473.04 121.264 1468.78 127.424 1462.51 131.792C1456.35 136.048 1448.85 138.176 1440 138.176ZM1472.93 88.952C1472.7 76.632 1469.51 67.168 1463.35 60.56C1457.3 53.952 1449.13 50.648 1438.82 50.648C1428.63 50.648 1420.12 54.176 1413.29 61.232C1406.57 68.176 1402.98 77.416 1402.54 88.952H1472.93ZM1527.04 138.176C1515.73 138.176 1506.32 134.256 1498.82 126.416C1491.43 118.464 1487.73 107.6 1487.73 93.824V92.48C1487.73 79.152 1491.59 68.4 1499.32 60.224C1507.16 52.048 1516.85 47.96 1528.39 47.96C1537.68 47.96 1545.24 50.536 1551.07 55.688C1557 60.728 1561.37 67.112 1564.17 74.84V7.13599H1567.19V137H1564.17V110.624C1561.82 117.904 1557.39 124.344 1550.9 129.944C1544.51 135.432 1536.56 138.176 1527.04 138.176ZM1527.04 135.488C1537.35 135.488 1546.08 131.68 1553.25 124.064C1560.53 116.448 1564.17 106.368 1564.17 93.824V92.48C1564.17 79.712 1560.75 69.576 1553.92 62.072C1547.2 54.456 1538.69 50.648 1528.39 50.648C1517.86 50.648 1508.95 54.456 1501.67 62.072C1494.39 69.576 1490.75 79.712 1490.75 92.48V93.824C1490.75 106.592 1494.11 116.728 1500.83 124.232C1507.67 131.736 1516.4 135.488 1527.04 135.488ZM1662.68 135.488C1673.21 135.488 1682.22 131.68 1689.73 124.064C1697.34 116.336 1701.15 106.2 1701.15 93.656V92.312C1701.15 79.656 1697.4 69.576 1689.89 62.072C1682.5 54.568 1673.54 50.816 1663.01 50.816C1652.37 50.816 1643.25 54.624 1635.63 62.24C1628.01 69.856 1624.21 79.936 1624.21 92.48V93.824C1624.21 106.144 1627.96 116.168 1635.46 123.896C1642.97 131.624 1652.04 135.488 1662.68 135.488ZM1691.91 125.744C1683.73 134.032 1673.93 138.176 1662.51 138.176C1651.09 138.176 1641.34 133.976 1633.28 125.576C1625.21 117.176 1621.18 106.592 1621.18 93.824V92.48C1621.18 79.6 1625.27 69.016 1633.45 60.728C1641.73 52.328 1651.59 48.128 1663.01 48.128C1674.44 48.128 1684.13 52.216 1692.08 60.392C1700.14 68.568 1704.17 79.208 1704.17 92.312V93.656C1704.17 106.648 1700.09 117.344 1691.91 125.744ZM1722.52 49.136H1725.54V70.136C1727.67 64.088 1731.87 58.88 1738.14 54.512C1744.52 50.144 1751.75 47.96 1759.81 47.96C1769.78 47.96 1777.51 50.816 1783 56.528C1788.6 62.24 1791.4 70.976 1791.4 82.736V137H1788.37V82.736C1788.37 71.872 1785.85 63.808 1780.81 58.544C1775.88 53.28 1768.88 50.648 1759.81 50.648C1750.85 50.648 1742.9 53.616 1735.96 59.552C1729.01 65.488 1725.54 73.552 1725.54 83.744V137H1722.52V49.136ZM1885.15 138.176C1872.38 138.176 1862.41 134.088 1855.24 125.912C1848.19 117.736 1844.66 107.04 1844.66 93.824V92.48C1844.66 79.488 1848.35 68.848 1855.75 60.56C1863.14 52.16 1872.55 47.96 1883.97 47.96C1895.17 47.96 1904.13 51.712 1910.85 59.216C1917.68 66.608 1921.1 76.8 1921.1 89.792V91.64H1847.68C1847.68 105.528 1850.87 116.336 1857.26 124.064C1863.75 131.68 1873.05 135.488 1885.15 135.488C1893.21 135.488 1900.1 133.584 1905.81 129.776C1911.52 125.968 1915.39 120.48 1917.4 113.312H1920.43C1918.19 121.264 1913.93 127.424 1907.66 131.792C1901.5 136.048 1893.99 138.176 1885.15 138.176ZM1918.07 88.952C1917.85 76.632 1914.66 67.168 1908.5 60.56C1902.45 53.952 1894.27 50.648 1883.97 50.648C1873.78 50.648 1865.27 54.176 1858.43 61.232C1851.71 68.176 1848.13 77.416 1847.68 88.952H1918.07ZM1962.5 91.304L1930.75 49.136H1934.45L1964.52 89.288L1993.92 49.136H1997.45L1966.37 91.304L2000.81 137H1997.11L1964.35 93.32L1932.26 137H1928.74L1962.5 91.304ZM2016.65 49.136H2019.68V76.52C2022.37 68.568 2027.07 61.848 2033.79 56.36C2040.51 50.76 2048.35 47.96 2057.31 47.96C2068.17 47.96 2077.36 52.048 2084.86 60.224C2092.37 68.4 2096.12 79.152 2096.12 92.48V93.824C2096.12 107.488 2092.37 118.296 2084.86 126.248C2077.47 134.2 2068.29 138.176 2057.31 138.176C2047.57 138.176 2039.5 135.488 2033.12 130.112C2026.73 124.624 2022.25 118.072 2019.68 110.456V167.576H2016.65V49.136ZM2030.77 124.064C2038.16 131.68 2047.01 135.488 2057.31 135.488C2067.61 135.488 2076.13 131.736 2082.85 124.232C2089.68 116.728 2093.09 106.592 2093.09 93.824V92.48C2093.09 79.712 2089.62 69.576 2082.68 62.072C2075.73 54.456 2067.28 50.648 2057.31 50.648C2047.57 50.648 2038.83 54.512 2031.1 62.24C2023.49 69.968 2019.68 80.048 2019.68 92.48V93.824C2019.68 106.368 2023.37 116.448 2030.77 124.064ZM2114.72 49.136H2117.75V137H2114.72V49.136ZM2116.24 29.648C2114.33 29.648 2113.38 28.696 2113.38 26.792C2113.38 24.888 2114.33 23.936 2116.24 23.936C2118.14 23.936 2119.09 24.888 2119.09 26.792C2119.09 28.696 2118.14 29.648 2116.24 29.648ZM2142.89 49.136H2145.91V70.808C2148.15 64.536 2151.85 59.328 2157 55.184C2162.26 50.928 2168.82 48.688 2176.66 48.464V51.152C2167.81 51.376 2160.47 54.568 2154.65 60.728C2148.82 66.776 2145.91 75.792 2145.91 87.776V137H2142.89V49.136ZM2194.36 49.136H2197.39V137H2194.36V49.136ZM2195.88 29.648C2193.97 29.648 2193.02 28.696 2193.02 26.792C2193.02 24.888 2193.97 23.936 2195.88 23.936C2197.78 23.936 2198.73 24.888 2198.73 26.792C2198.73 28.696 2197.78 29.648 2195.88 29.648ZM2256.46 138.176C2243.7 138.176 2233.73 134.088 2226.56 125.912C2219.5 117.736 2215.98 107.04 2215.98 93.824V92.48C2215.98 79.488 2219.67 68.848 2227.06 60.56C2234.46 52.16 2243.86 47.96 2255.29 47.96C2266.49 47.96 2275.45 51.712 2282.17 59.216C2289 66.608 2292.42 76.8 2292.42 89.792V91.64H2219C2219 105.528 2222.19 116.336 2228.58 124.064C2235.07 131.68 2244.37 135.488 2256.46 135.488C2264.53 135.488 2271.42 133.584 2277.13 129.776C2282.84 125.968 2286.7 120.48 2288.72 113.312H2291.74C2289.5 121.264 2285.25 127.424 2278.98 131.792C2272.82 136.048 2265.31 138.176 2256.46 138.176ZM2289.39 88.952C2289.17 76.632 2285.98 67.168 2279.82 60.56C2273.77 53.952 2265.59 50.648 2255.29 50.648C2245.1 50.648 2236.58 54.176 2229.75 61.232C2223.03 68.176 2219.45 77.416 2219 88.952H2289.39ZM2310.75 49.136H2313.77V70.136C2315.9 64.088 2320.1 58.88 2326.37 54.512C2332.75 50.144 2339.98 47.96 2348.04 47.96C2358.01 47.96 2365.74 50.816 2371.23 56.528C2376.83 62.24 2379.63 70.976 2379.63 82.736V137H2376.6V82.736C2376.6 71.872 2374.08 63.808 2369.04 58.544C2364.11 53.28 2357.11 50.648 2348.04 50.648C2339.08 50.648 2331.13 53.616 2324.19 59.552C2317.24 65.488 2313.77 73.552 2313.77 83.744V137H2310.75V49.136ZM2437.83 138.176C2426.4 138.176 2416.77 134.032 2408.93 125.744C2401.09 117.456 2397.17 106.816 2397.17 93.824V92.48C2397.17 79.376 2401.15 68.68 2409.1 60.392C2417.05 52.104 2426.74 47.96 2438.16 47.96C2447.12 47.96 2454.91 50.536 2461.51 55.688C2468.23 60.728 2472.15 67.336 2473.27 75.512H2470.25C2469.24 67.896 2465.66 61.848 2459.5 57.368C2453.45 52.888 2446.34 50.648 2438.16 50.648C2427.41 50.648 2418.39 54.456 2411.11 62.072C2403.83 69.688 2400.19 79.824 2400.19 92.48V93.824C2400.19 106.256 2403.83 116.336 2411.11 124.064C2418.39 131.68 2427.3 135.488 2437.83 135.488C2446.56 135.488 2453.95 133.08 2460 128.264C2466.16 123.448 2470.03 116.672 2471.59 107.936H2474.45C2472.99 117.12 2468.91 124.456 2462.19 129.944C2455.47 135.432 2447.35 138.176 2437.83 138.176ZM2526.21 138.176C2513.44 138.176 2503.47 134.088 2496.3 125.912C2489.25 117.736 2485.72 107.04 2485.72 93.824V92.48C2485.72 79.488 2489.41 68.848 2496.81 60.56C2504.2 52.16 2513.61 47.96 2525.03 47.96C2536.23 47.96 2545.19 51.712 2551.91 59.216C2558.74 66.608 2562.16 76.8 2562.16 89.792V91.64H2488.74C2488.74 105.528 2491.93 116.336 2498.32 124.064C2504.81 131.68 2514.11 135.488 2526.21 135.488C2534.27 135.488 2541.16 133.584 2546.87 129.776C2552.58 125.968 2556.45 120.48 2558.46 113.312H2561.49C2559.25 121.264 2554.99 127.424 2548.72 131.792C2542.56 136.048 2535.05 138.176 2526.21 138.176ZM2559.13 88.952C2558.91 76.632 2555.72 67.168 2549.56 60.56C2543.51 53.952 2535.33 50.648 2525.03 50.648C2514.84 50.648 2506.33 54.176 2499.49 61.232C2492.77 68.176 2489.19 77.416 2488.74 88.952H2559.13Z" fill="white"/>
</g>
<defs>
<linearGradient id="paint0_linear_124_163" x1="96" y1="83.4207" x2="1.05518e-06" y2="83.4207" gradientUnits="userSpaceOnUse">
<stop stop-color="#D9D9D9"/>
<stop offset="1" stop-color="#D9D9D9" stop-opacity="0"/>
</linearGradient>
<linearGradient id="paint1_linear_124_163" x1="1536" y1="251.421" x2="1440" y2="251.421" gradientUnits="userSpaceOnUse">
<stop stop-color="#D9D9D9"/>
<stop offset="1" stop-color="#D9D9D9" stop-opacity="0"/>
</linearGradient>
</defs>
</svg>
