<svg width="27" height="34" viewBox="0 0 27 34" fill="none" xmlns="http://www.w3.org/2000/svg">
<path d="M27 10.995C27 9.88696 26.0619 8.84093 24.3229 7.98861C26.0619 7.13628 27 6.09025 27 4.98222C27 3.61076 25.5737 2.34777 22.9729 1.41021C20.4407 0.503646 17.0771 0 13.5 0C9.92288 0 6.55932 0.503646 4.02712 1.41796C1.42627 2.35552 0 3.61851 0 4.98997C0 6.09799 0.938136 7.14403 2.67712 7.99635C0.938136 8.84868 0 9.89471 0 11.0027C0 12.1108 0.938136 13.1568 2.67712 14.0091C0.938136 14.8459 0 15.892 0 17C0 18.108 0.938136 19.1541 2.67712 20.0064C0.938136 20.8587 0 21.9047 0 23.0128C0 24.1208 0.938136 25.1668 2.67712 26.0191C0.938136 26.8637 0 27.902 0 29.01C0 30.3815 1.42627 31.6445 4.02712 32.582C6.55932 33.4964 9.92288 34 13.5 34C17.0771 34 20.4407 33.4964 22.9729 32.582C25.5661 31.6445 27 30.3815 27 29.01C27 27.902 26.0619 26.856 24.3229 26.0036C26.0619 25.1513 27 24.1053 27 22.9973C27 21.8892 26.0619 20.8432 24.3229 19.9909C26.0619 19.1386 27 18.0925 27 16.9845C27 15.8765 26.0619 14.8304 24.3229 13.9781C26.0619 13.1413 27 12.103 27 10.995ZM0.381356 4.98997C0.381356 3.81222 1.75424 2.64995 4.15678 1.78213C6.65085 0.883318 9.96864 0.38742 13.5076 0.38742C17.0466 0.38742 20.3644 0.883318 22.8585 1.78213C25.2458 2.64221 26.6186 3.81222 26.6186 4.98997C26.6186 5.98177 25.6271 6.97356 23.8653 7.7794C23.583 7.65542 23.2856 7.5392 22.9729 7.42297C20.4407 6.50866 17.0771 6.00501 13.5 6.00501C9.92288 6.00501 6.55932 6.50866 4.02712 7.42297C3.71441 7.5392 3.41695 7.65542 3.13475 7.7794C1.36525 6.97356 0.381356 5.98177 0.381356 4.98997ZM23.3771 7.98861C23.2093 8.05834 23.0339 8.12808 22.8508 8.19006C20.3568 9.08888 17.039 9.58478 13.5 9.58478C9.96102 9.58478 6.64322 9.08888 4.14915 8.19006C3.9661 8.12808 3.79068 8.05834 3.62288 7.98861C3.79068 7.91887 3.9661 7.84913 4.14915 7.78715C6.64322 6.88833 9.96102 6.39243 13.5 6.39243C17.039 6.39243 20.3568 6.88833 22.8508 7.78715C23.0339 7.85688 23.2093 7.91887 23.3771 7.98861ZM26.6186 29.01C26.6186 30.1878 25.2458 31.35 22.8432 32.2179C20.3492 33.1167 17.0314 33.6126 13.4924 33.6126C9.95339 33.6126 6.63559 33.1167 4.14153 32.2179C1.75424 31.3578 0.381356 30.1878 0.381356 29.01C0.381356 28.0182 1.37288 27.0264 3.13475 26.2206C3.41695 26.3446 3.71441 26.4608 4.02712 26.577C6.55932 27.4913 9.92288 27.995 13.5 27.995C17.0771 27.995 20.4407 27.4913 22.9729 26.577C23.2856 26.4608 23.583 26.3446 23.8653 26.2206C25.6347 27.0264 26.6186 28.0182 26.6186 29.01ZM3.62288 26.0114C3.79068 25.9417 3.9661 25.8719 4.14915 25.8099C6.64322 24.9111 9.96102 24.4152 13.5 24.4152C17.039 24.4152 20.3568 24.9111 22.8508 25.8099C23.0339 25.8719 23.2093 25.9417 23.3771 26.0114C23.2093 26.0811 23.0339 26.1509 22.8508 26.2129C20.3568 27.1117 17.039 27.6076 13.5 27.6076C9.96102 27.6076 6.64322 27.1117 4.14915 26.2129C3.9661 26.1431 3.79068 26.0811 3.62288 26.0114ZM26.6186 23.005C26.6186 23.9968 25.6271 24.9886 23.8653 25.7944C23.583 25.6705 23.2856 25.5542 22.9729 25.438C20.4407 24.5237 17.0771 24.0201 13.5 24.0201C9.92288 24.0201 6.55932 24.5237 4.02712 25.438C3.71441 25.5542 3.41695 25.6705 3.13475 25.7944C1.37288 24.9886 0.381356 23.9968 0.381356 23.005C0.381356 22.0132 1.37288 21.0214 3.13475 20.2156C3.41695 20.3396 3.71441 20.4558 4.02712 20.572C6.55932 21.4863 9.92288 21.99 13.5 21.99C17.0771 21.99 20.4407 21.4863 22.9729 20.572C23.2856 20.4558 23.583 20.3396 23.8653 20.2156C25.6347 21.0214 26.6186 22.0132 26.6186 23.005ZM3.62288 20.0064C3.79068 19.9366 3.9661 19.8669 4.14915 19.8049C6.64322 18.9061 9.96102 18.4102 13.5 18.4102C17.0314 18.4102 20.3568 18.9061 22.8508 19.8049C23.0339 19.8669 23.2093 19.9366 23.3771 20.0064C23.2093 20.0761 23.0339 20.1459 22.8508 20.2078C20.3568 21.1067 17.039 21.6026 13.5 21.6026C9.96102 21.6026 6.64322 21.1067 4.14915 20.2078C3.9661 20.1381 3.79068 20.0684 3.62288 20.0064ZM26.6186 17C26.6186 17.9918 25.6271 18.9836 23.8653 19.7894C23.583 19.6655 23.2856 19.5492 22.9729 19.433C20.4407 18.5187 17.0771 18.015 13.5 18.015C9.92288 18.015 6.55932 18.5187 4.02712 19.433C3.71441 19.5492 3.41695 19.6655 3.13475 19.7894C1.36525 18.9836 0.381356 17.9918 0.381356 17C0.381356 16.0082 1.37288 15.0164 3.13475 14.2106C3.41695 14.3345 3.71441 14.4508 4.02712 14.567C6.55932 15.4813 9.92288 15.985 13.5 15.985C17.0771 15.985 20.4407 15.4813 22.9729 14.567C23.2856 14.4508 23.583 14.3345 23.8653 14.2106C25.6347 15.0164 26.6186 16.0082 26.6186 17ZM3.62288 13.9936C3.79068 13.9239 3.9661 13.8541 4.14915 13.7922C6.64322 12.8933 9.96102 12.3974 13.5 12.3974C17.039 12.3974 20.3568 12.8933 22.8508 13.7922C23.0339 13.8541 23.2093 13.9239 23.3771 13.9936C23.2093 14.0634 23.0339 14.1331 22.8508 14.1951C20.3568 15.0939 17.039 15.5898 13.5 15.5898C9.96102 15.5898 6.64322 15.0939 4.14915 14.1951C3.9661 14.1331 3.79068 14.0634 3.62288 13.9936ZM23.8729 13.7844C23.5907 13.6604 23.2932 13.5442 22.9805 13.428C20.4483 12.5137 17.0847 12.01 13.5076 12.01C9.93051 12.01 6.56695 12.5137 4.03475 13.428C3.72203 13.5442 3.42458 13.6604 3.14237 13.7844C1.38051 12.9786 0.388983 11.9868 0.388983 10.995C0.388983 10.0032 1.38051 9.01139 3.14237 8.20556C3.42458 8.32954 3.72203 8.44576 4.03475 8.56199C6.56695 9.4763 9.93051 9.97994 13.5076 9.97994C17.0847 9.97994 20.4483 9.4763 22.9805 8.56199C23.2932 8.44576 23.5907 8.32954 23.8729 8.20556C25.6347 9.01139 26.6263 10.0032 26.6263 10.995C26.6263 11.9868 25.6347 12.9786 23.8729 13.7844Z" fill="#999999"/>
</svg>
