<svg width="20" height="35" viewBox="0 0 20 35" fill="none" xmlns="http://www.w3.org/2000/svg">
<path d="M19.4294 14.0132C19.7982 12.9217 19.993 11.7497 19.993 10.5264C19.993 4.72478 15.5115 0 9.99304 0C4.4746 0 0 4.72478 0 10.5264C0 11.7497 0.201809 12.9217 0.563674 14.0132C0.19485 15.1046 0 16.2767 0 17.5C0 18.7233 0.201809 19.8954 0.563674 20.9868C0.19485 22.0783 0 23.2503 0 24.4736C0 30.2752 4.48156 35 10 35C15.5184 35 20 30.2825 20 24.4736C20 23.2503 19.7982 22.0783 19.4363 20.9868C19.8051 19.8954 20 18.7233 20 17.5C20 16.2767 19.7982 15.1046 19.4294 14.0132ZM0.347947 10.5264C0.347947 4.92256 4.67641 0.366262 10 0.366262C15.3236 0.366262 19.6521 4.92256 19.6521 10.5264C19.6521 11.5519 19.5059 12.5408 19.2345 13.4711C17.7314 9.66199 14.1545 6.98095 10 6.98095C5.84551 6.98095 2.26862 9.66199 0.765484 13.4711C0.494085 12.5408 0.347947 11.5519 0.347947 10.5264ZM10 21.0454C12.8462 21.0454 15.421 19.7855 17.2443 17.771C18.0306 18.7087 18.65 19.7928 19.0675 20.9868C17.7105 24.8765 14.1614 27.6528 10.007 27.6528C5.85247 27.6528 2.29645 24.8692 0.946416 20.9868C1.36395 19.7928 1.9833 18.7087 2.76966 17.771C4.57898 19.7855 7.15379 21.0454 10 21.0454ZM10 20.6792C7.24426 20.6792 4.75296 19.4558 2.99234 17.5C4.75296 15.5442 7.24426 14.3208 10 14.3208C12.7557 14.3208 15.247 15.5442 17.0077 17.5C15.247 19.4558 12.7557 20.6792 10 20.6792ZM10 13.9546C7.15379 13.9546 4.57898 15.2145 2.75574 17.229C1.96938 16.2913 1.35003 15.2072 0.932498 14.0132C2.28949 10.1235 5.83855 7.34722 9.99304 7.34722C14.1475 7.34722 17.7035 10.1308 19.0536 14.0132C18.636 15.2072 18.0167 16.2913 17.2303 17.229C15.421 15.2145 12.8462 13.9546 10 13.9546ZM0.347947 17.5C0.347947 16.4745 0.494085 15.4856 0.765484 14.5553C1.19694 15.6394 1.78845 16.6356 2.51914 17.5C1.78845 18.3644 1.18998 19.3606 0.765484 20.4447C0.494085 19.5144 0.347947 18.5255 0.347947 17.5ZM19.6521 24.4736C19.6521 30.0774 15.3236 34.6337 10 34.6337C4.67641 34.6337 0.347947 30.0774 0.347947 24.4736C0.347947 23.4481 0.494085 22.4592 0.765484 21.5289C2.26862 25.338 5.84551 28.019 10 28.019C14.1545 28.019 17.7314 25.338 19.2345 21.5289C19.5059 22.4592 19.6521 23.4481 19.6521 24.4736ZM17.4809 17.5C18.2115 16.6356 18.81 15.6394 19.2345 14.5553C19.5059 15.4856 19.6521 16.4745 19.6521 17.5C19.6521 18.5255 19.5059 19.5144 19.2345 20.4447C18.8031 19.3606 18.2115 18.3644 17.4809 17.5Z" fill="#999999"/>
</svg>
