<svg width="34" height="34" viewBox="0 0 34 34" fill="none" xmlns="http://www.w3.org/2000/svg">
<path d="M34 16.8234C34 16.7645 34 16.7056 34 16.6467C34 15.3177 33.8149 14.0223 33.4701 12.8026C31.5943 5.45077 24.9154 0 17 0C7.62939 0 0 7.62939 0 17C0 26.3706 7.62098 34 17 34C26.1183 34 33.5794 26.7828 33.9832 17.7655C33.9916 17.6982 33.9916 17.6393 33.9916 17.572C34 17.4626 34 17.3533 34 17.2439C34 17.2187 34 17.1935 34 17.1682C34 17.1178 34 17.0673 34 17.0168C34 16.9411 34 16.8822 34 16.8234ZM33.571 17.0589C33.5626 17.3869 33.5374 17.715 33.5037 18.043C33.1252 20.2301 31.2073 21.904 28.9109 21.904C26.337 21.904 24.2509 19.8095 24.2509 17.2439C24.2509 14.6784 26.3454 12.5839 28.9109 12.5839C31.3756 12.5839 33.4028 14.5101 33.5626 16.9327C33.571 16.9664 33.571 17.0084 33.571 17.0589ZM28.9193 12.1549C26.1183 12.1549 23.8387 14.4344 23.8387 17.2355C23.8387 20.0366 26.1183 22.3162 28.9193 22.3162C30.5092 22.3162 31.9307 21.5844 32.8644 20.432C31.6616 23.0059 29.0455 24.7892 26.0173 24.7892C21.8535 24.7892 18.4636 21.3993 18.4636 17.2355C18.4636 13.0717 21.8535 9.68184 26.0173 9.68184C29.0371 9.68184 31.6531 11.4651 32.8644 14.0391C31.9307 12.8867 30.5092 12.1549 28.9193 12.1549ZM26.0173 9.26126C21.618 9.26126 18.043 12.8362 18.043 17.2355C18.043 21.6348 21.618 25.2098 26.0173 25.2098C28.4567 25.2098 30.6522 24.1079 32.1158 22.3666C30.2736 25.4958 26.8585 27.6071 22.9723 27.6071C17.1262 27.6071 12.3652 22.8461 12.3652 17C12.3652 11.1539 17.1262 6.39287 22.9723 6.39287C27.4389 6.39287 31.2746 9.16873 32.8308 13.0886C31.426 10.7922 28.9025 9.26126 26.0173 9.26126ZM22.9723 5.97229C16.8906 5.97229 11.9446 10.9184 11.9446 17C11.9446 23.0816 16.8906 28.0277 22.9723 28.0277C26.2697 28.0277 29.2222 26.5725 31.2494 24.2761C28.7848 27.9352 24.6042 30.3493 19.8684 30.3493C12.3063 30.3493 6.15735 24.2004 6.15735 16.6383C6.15735 9.0762 12.3063 2.92726 19.8684 2.92726C25.7313 2.92726 30.7531 6.6284 32.7046 11.8184C30.8456 8.34438 27.1781 5.97229 22.9723 5.97229ZM17 33.5794C7.85651 33.5794 0.420584 26.1435 0.420584 17C0.420584 7.85651 7.85651 0.420584 17 0.420584C22.4339 0.420584 27.2622 3.04503 30.282 7.09104C27.6997 4.27313 23.9817 2.50668 19.8684 2.50668C12.0708 2.50668 5.73676 8.84908 5.73676 16.6383C5.73676 24.4275 12.0792 30.7699 19.8684 30.7699C25.2603 30.7699 29.954 27.7333 32.3345 23.2919C29.853 29.3231 23.9144 33.5794 17 33.5794Z" fill="#999999"/>
</svg>
