<svg width="40" height="37" viewBox="0 0 40 37" fill="none" xmlns="http://www.w3.org/2000/svg">
<path d="M35.7637 8.13021C34.5775 8.13021 33.5232 9.25941 32.7607 11.1132C32.6194 10.6521 32.4782 10.2192 32.3088 9.80519C31.3674 7.41506 30.0777 6.09766 28.6938 6.09766C27.63 6.09766 26.6227 6.87869 25.7849 8.31841C24.6929 5.5707 23.2149 4.06511 21.6145 4.06511C20.6072 4.06511 19.647 4.66734 18.7997 5.80595C17.6136 3.35936 16.1261 2.03255 14.5352 2.03255C13.575 2.03255 12.6618 2.51246 11.8145 3.43464C10.5625 1.20448 9.05625 0 7.45587 0C5.42245 0 3.53024 1.95727 2.12756 5.49542C0.753118 8.9677 0 13.588 0 18.5C0 23.412 0.753118 28.0229 2.12756 31.5046C3.53024 35.0521 5.42245 37 7.45587 37C9.04683 37 10.5625 35.7955 11.8145 33.5654C12.6524 34.4875 13.575 34.9674 14.5352 34.9674C16.1261 34.9674 17.6136 33.6406 18.7997 31.194C19.647 32.3327 20.6072 32.9349 21.6145 32.9349C23.2055 32.9349 24.6835 31.4199 25.7849 28.6816C26.6227 30.1213 27.63 30.9023 28.6938 30.9023C30.0777 30.9023 31.3674 29.5849 32.3088 27.1948C32.4688 26.7808 32.6194 26.3385 32.7607 25.8868C33.5232 27.7406 34.5775 28.8698 35.7637 28.8698C38.136 28.8698 40 24.3154 40 18.5094C40 12.7035 38.136 8.13021 35.7637 8.13021ZM25.5025 27.0066C24.6081 24.7388 24.1092 21.7182 24.1092 18.4906C24.1092 15.263 24.6081 12.2518 25.5025 9.97457C25.5684 9.80519 25.6343 9.64522 25.7002 9.49466C26.5286 12.0165 26.9805 15.1595 26.9805 18.4906C26.9805 21.8217 26.5286 24.9646 25.7002 27.4865C25.6437 27.3266 25.5684 27.1666 25.5025 27.0066ZM7.46529 36.5201C5.63897 36.5201 3.9068 34.6757 2.57943 31.3164C1.22382 27.8911 0.480113 23.3367 0.480113 18.4906C0.480113 13.6445 1.22382 9.09003 2.57943 5.6648C3.9068 2.30544 5.63897 0.461089 7.46529 0.461089C8.92445 0.461089 10.3177 1.63733 11.4945 3.81104C10.8637 4.60147 10.2895 5.65539 9.78112 6.92574C8.55731 10.0216 7.88892 14.1244 7.88892 18.4906C7.88892 22.8568 8.56672 26.9596 9.78112 30.0554C10.2895 31.3352 10.8637 32.3797 11.4945 33.1701C10.3177 35.3438 8.92445 36.5201 7.46529 36.5201ZM11.7298 4.26272C11.9463 4.69557 12.1534 5.15666 12.3511 5.65539C13.7068 9.09003 14.4505 13.6445 14.4505 18.4906C14.4505 23.3367 13.7068 27.8911 12.3511 31.3164C12.1534 31.8151 11.9463 32.2856 11.7298 32.7091C11.1838 31.9751 10.6755 31.0247 10.2142 29.8767C9.00918 26.8372 8.3502 22.7909 8.3502 18.4906C8.3502 14.1902 9.00918 10.1439 10.2142 7.10453C10.6755 5.9471 11.1838 4.99669 11.7298 4.26272ZM14.5352 34.4875C13.6691 34.4875 12.8313 34.017 12.0499 33.1231C12.3041 32.6244 12.5488 32.088 12.7842 31.4952C14.168 28.0135 14.9212 23.3932 14.9212 18.4906C14.9212 13.588 14.168 8.9677 12.7936 5.48601C12.5582 4.90259 12.3135 4.35682 12.0593 3.85809C12.8313 2.96414 13.6785 2.49364 14.5352 2.49364C15.9849 2.49364 17.3688 3.82045 18.4891 6.23881C18.1031 6.83164 17.7454 7.54679 17.4253 8.36546C16.3521 11.0755 15.7684 14.6701 15.7684 18.4906C15.7684 22.311 16.3615 25.9056 17.4253 28.6157C17.7454 29.4344 18.1031 30.1401 18.4891 30.7424C17.3782 33.1607 15.9849 34.4875 14.5352 34.4875ZM18.8562 7.10453C20.0612 10.1439 20.7202 14.1902 20.7202 18.4906C20.7202 22.7909 20.0612 26.8372 18.8562 29.8767C18.8091 29.9896 18.7621 30.1025 18.7244 30.206C18.4137 29.6979 18.1313 29.105 17.8677 28.4369C16.8134 25.7833 16.2391 22.2546 16.2391 18.4906C16.2391 14.7266 16.8134 11.1979 17.8677 8.54425C18.1313 7.87614 18.4232 7.28332 18.7244 6.77518C18.7715 6.87869 18.8185 6.99161 18.8562 7.10453ZM25.3613 28.4369C24.354 30.987 22.9889 32.4456 21.6145 32.4456C20.7202 32.4456 19.8258 31.8245 19.0351 30.6859C19.1292 30.4789 19.2139 30.2719 19.2987 30.046C20.5225 26.9502 21.1909 22.8474 21.1909 18.4812C21.1909 14.115 20.5131 10.0122 19.2987 6.91633C19.2139 6.6999 19.1198 6.48347 19.0351 6.27645C19.8258 5.13784 20.7202 4.51679 21.6145 4.51679C22.9889 4.51679 24.354 5.97533 25.3613 8.52543C25.3989 8.62894 25.446 8.74186 25.4836 8.85478C25.3424 9.14649 25.2012 9.45702 25.0694 9.79578C24.1469 12.12 23.6479 15.2065 23.6479 18.4812C23.6479 21.7558 24.1563 24.8423 25.0694 27.1666C25.2012 27.5053 25.3424 27.8159 25.4836 28.1076C25.446 28.2205 25.4083 28.3334 25.3613 28.4369ZM31.8663 27.0066C31.0096 29.1709 29.8517 30.4224 28.6844 30.4224C27.7336 30.4224 26.7828 29.5849 25.992 28.0888C26.9334 25.454 27.4512 22.0664 27.4512 18.4906C27.4512 14.9148 26.9334 11.5366 25.992 8.89242C26.7734 7.39624 27.7242 6.55875 28.6844 6.55875C29.8517 6.55875 31.0096 7.80086 31.8663 9.97457C32.0923 10.558 32.2994 11.1885 32.4782 11.866C31.8757 13.6539 31.5274 15.9499 31.5274 18.4906C31.5274 21.0313 31.8852 23.3273 32.4782 25.1152C32.2994 25.7833 32.1017 26.4232 31.8663 27.0066ZM32.7042 12.807C33.0713 14.529 33.2596 16.4769 33.2596 18.4906C33.2596 20.5043 33.0619 22.4522 32.7042 24.1742C32.2617 22.5557 31.9981 20.589 31.9981 18.4906C31.9981 16.3922 32.2523 14.4255 32.7042 12.807ZM35.7637 28.3805C34.6717 28.3805 33.6738 27.0913 32.9772 25.0682C33.4667 23.1203 33.7303 20.8525 33.7303 18.4906C33.7303 16.1287 33.4667 13.8609 32.9772 11.913C33.6738 9.88988 34.6717 8.60071 35.7637 8.60071C37.8065 8.60071 39.5293 13.1269 39.5293 18.4906C39.5293 23.8543 37.8065 28.3805 35.7637 28.3805Z" fill="#999999"/>
</svg>
