<svg width="33" height="32" viewBox="0 0 33 32" fill="none" xmlns="http://www.w3.org/2000/svg">
<path d="M2.79026 2.57801C5.90868 -0.458735 10.9642 -0.458232 14.0825 2.57869C17.2006 5.61564 17.2006 10.5387 14.0825 13.5756C10.9642 16.6125 5.90868 16.613 2.79026 13.5763C-0.328135 10.5393 -0.328135 5.61503 2.79026 2.57801Z" stroke="#999999" stroke-width="0.4"/>
<path d="M24.812 0.303223C29.2286 0.303223 32.8003 3.78903 32.8003 8.07764C32.8001 12.3661 29.2285 15.8511 24.812 15.8511C20.3957 15.8509 16.8249 12.3659 16.8247 8.07764C16.8247 3.78914 20.3956 0.30341 24.812 0.303223Z" stroke="#999999" stroke-width="0.4"/>
<path d="M8.43604 16.252C12.8526 16.252 16.4243 19.7378 16.4243 24.0264C16.4241 28.3148 12.8525 31.7998 8.43604 31.7998C4.01976 31.7996 0.448968 28.3147 0.44873 24.0264C0.44873 19.7379 4.01961 16.2521 8.43604 16.252Z" stroke="#999999" stroke-width="0.4"/>
<path d="M24.812 16.252C29.2286 16.252 32.8003 19.7378 32.8003 24.0264C32.8001 28.3148 29.2285 31.7998 24.812 31.7998C20.3957 31.7996 16.8249 28.3147 16.8247 24.0264C16.8247 19.7379 20.3956 16.2521 24.812 16.252Z" stroke="#999999" stroke-width="0.4"/>
</svg>
