<svg width="1440" height="245" viewBox="0 0 1440 245" fill="none" xmlns="http://www.w3.org/2000/svg">
<path d="M-134.381 233.523C-152.423 233.523 -168.884 230.361 -183.764 224.037C-198.644 217.713 -210.827 209.157 -220.313 198.369C-229.799 187.767 -237.146 175.677 -242.354 162.099C-247.376 148.521 -249.887 134.199 -249.887 119.133C-249.887 96.9988 -244.4 76.8178 -233.426 58.5898C-222.266 40.1758 -207.665 25.9468 -189.623 15.9028C-171.581 5.67276 -152.237 0.557759 -131.591 0.557759C-98.855 0.557759 -72.536 10.2298 -52.634 29.5738C-32.546 48.9178 -22.502 73.2838 -22.502 102.672C-22.502 125.922 -27.245 143.406 -36.731 155.124C-46.031 166.656 -57.005 172.422 -69.653 172.422C-79.325 172.422 -86.858 169.818 -92.252 164.61C-97.646 159.216 -100.529 151.59 -100.901 141.732C-104.435 150.102 -110.108 157.635 -117.92 164.331C-125.732 171.027 -134.753 174.375 -144.983 174.375C-158.189 174.375 -168.884 170.004 -177.068 161.262C-185.066 152.52 -189.065 140.709 -189.065 125.829C-189.065 107.601 -183.671 92.2558 -172.883 79.7938C-162.095 67.3318 -149.54 61.1008 -135.218 61.1008C-125.36 61.1008 -116.99 63.9838 -110.108 69.7498C-103.226 75.5158 -98.948 82.7698 -97.274 91.5118L-94.205 63.6118H-84.719L-92.252 128.619C-93.926 139.779 -92.903 148.614 -89.183 155.124C-85.277 161.448 -78.674 164.61 -69.374 164.61C-58.214 164.61 -49.193 159.402 -42.311 148.986C-35.243 138.384 -31.709 123.039 -31.709 102.951C-31.709 75.0508 -40.637 52.3588 -58.493 34.8748C-76.163 17.3908 -100.529 8.64875 -131.591 8.64875C-161.537 8.64875 -187.205 19.2508 -208.595 40.4548C-229.985 61.6588 -240.68 87.7918 -240.68 118.854C-240.68 132.99 -238.448 146.382 -233.984 159.03C-229.334 171.678 -222.731 182.931 -214.175 192.789C-205.433 202.833 -194.273 210.738 -180.695 216.504C-166.931 222.456 -151.493 225.432 -134.381 225.432C-97.925 225.432 -70.583 214.458 -52.355 192.51H-42.869C-50.123 204.042 -61.841 213.714 -78.023 221.526C-94.205 229.524 -112.991 233.523 -134.381 233.523ZM-143.867 166.563C-131.777 166.563 -121.454 161.076 -112.898 150.102C-104.156 139.128 -99.785 126.108 -99.785 111.042C-99.785 98.0218 -102.947 87.7918 -109.271 80.3518C-115.595 72.9118 -124.151 69.1918 -134.939 69.1918C-146.843 69.1918 -157.259 74.5858 -166.187 85.3738C-174.929 95.9758 -179.3 109.461 -179.3 125.829C-179.3 138.477 -176.138 148.428 -169.814 155.682C-163.304 162.936 -154.655 166.563 -143.867 166.563ZM48.9983 194.742C33.5603 194.742 21.3773 191.208 12.4493 184.14C3.52128 177.072 -0.942717 166.935 -0.942717 153.729C-0.942717 124.527 20.9123 109.926 64.6223 109.926H100.892V95.6968C100.892 80.6308 97.6373 69.7498 91.1273 63.0538C84.6173 56.1718 74.2943 52.7308 60.1583 52.7308C33.9323 52.7308 18.8663 63.9838 14.9603 86.4898H5.47428C7.14828 72.7258 13.1003 62.3098 23.3303 55.2418C33.7463 47.9878 46.1153 44.3608 60.4373 44.3608C93.7313 44.3608 110.378 61.4728 110.378 95.6968V192.51H100.892V167.679C90.1043 185.721 72.8063 194.742 48.9983 194.742ZM49.5563 186.651C63.5063 186.651 75.5033 182.931 85.5473 175.491C95.7773 167.865 100.892 158.658 100.892 147.87V117.738H64.6223C47.1383 117.738 33.3743 120.342 23.3303 125.55C13.4723 130.758 8.54328 140.151 8.54328 153.729C8.54328 164.331 11.9843 172.515 18.8663 178.281C25.9343 183.861 36.1643 186.651 49.5563 186.651ZM151.526 46.5928H161.012V192.51H151.526V46.5928ZM161.291 12.5548C159.989 14.0428 158.315 14.7868 156.269 14.7868C154.223 14.7868 152.456 14.0428 150.968 12.5548C149.48 11.0668 148.736 9.29975 148.736 7.25376C148.736 5.20776 149.48 3.53376 150.968 2.23175C152.456 0.743751 154.223 -0.00025034 156.269 -0.00025034C158.315 -0.00025034 159.989 0.743751 161.291 2.23175C162.779 3.53376 163.523 5.20776 163.523 7.25376C163.523 9.29975 162.779 11.0668 161.291 12.5548ZM203.475 46.5928H212.961V77.5618C216.495 68.4478 222.726 60.6358 231.654 54.1258C240.768 47.6158 251.37 44.3608 263.46 44.3608C288.942 44.3608 304.194 56.3578 309.216 80.3518C313.68 69.3778 320.655 60.6358 330.141 54.1258C339.627 47.6158 350.415 44.3608 362.505 44.3608C394.683 44.3608 410.772 63.1468 410.772 100.719V192.51H401.286V100.44C401.286 83.6998 397.845 71.6098 390.963 64.1698C384.267 56.5438 374.316 52.7308 361.11 52.7308C348.09 52.7308 336.651 57.2878 326.793 66.4018C316.935 75.5158 312.006 87.9778 312.006 103.788V192.51H302.52V100.44C302.52 83.6998 299.079 71.6098 292.197 64.1698C285.501 56.5438 275.55 52.7308 262.344 52.7308C249.138 52.7308 237.606 57.2878 227.748 66.4018C217.89 75.5158 212.961 87.9778 212.961 103.788V192.51H203.475V46.5928ZM451.336 46.5928H460.822V77.5618C464.356 68.4478 470.587 60.6358 479.515 54.1258C488.629 47.6158 499.231 44.3608 511.321 44.3608C536.803 44.3608 552.055 56.3578 557.077 80.3518C561.541 69.3778 568.516 60.6358 578.002 54.1258C587.488 47.6158 598.276 44.3608 610.366 44.3608C642.544 44.3608 658.633 63.1468 658.633 100.719V192.51H649.147V100.44C649.147 83.6998 645.706 71.6098 638.824 64.1698C632.128 56.5438 622.177 52.7308 608.971 52.7308C595.951 52.7308 584.512 57.2878 574.654 66.4018C564.796 75.5158 559.867 87.9778 559.867 103.788V192.51H550.381V100.44C550.381 83.6998 546.94 71.6098 540.058 64.1698C533.362 56.5438 523.411 52.7308 510.205 52.7308C496.999 52.7308 485.467 57.2878 475.609 66.4018C465.751 75.5158 460.822 87.9778 460.822 103.788V192.51H451.336V46.5928ZM703.94 193.905C701.522 193.905 699.569 193.161 698.081 191.673C696.593 189.999 695.849 188.046 695.849 185.814C695.849 183.582 696.593 181.722 698.081 180.234C699.569 178.56 701.522 177.723 703.94 177.723C706.172 177.723 708.032 178.56 709.52 180.234C711.008 181.722 711.752 183.582 711.752 185.814C711.752 188.046 711.008 189.999 709.52 191.673C708.032 193.161 706.172 193.905 703.94 193.905ZM804.811 244.683C785.281 244.683 770.029 240.498 759.055 232.128C748.267 223.944 741.85 213.528 739.804 200.88H749.569C751.429 211.482 756.916 220.038 766.03 226.548C775.33 233.058 788.164 236.313 804.532 236.313C821.644 236.313 835.315 231.942 845.545 223.2C855.775 214.644 860.89 201.066 860.89 182.466V147.591C857.17 158.379 850.102 167.772 839.686 175.77C829.27 183.768 816.808 187.767 802.3 187.767C783.514 187.767 767.89 181.443 755.428 168.795C742.966 156.147 736.735 139.128 736.735 117.738V115.506C736.735 94.6738 743.245 77.6548 756.265 64.4488C769.285 51.0568 785.374 44.3608 804.532 44.3608C831.502 44.3608 850.288 57.2878 860.89 83.1418V46.5928H870.376V183.024C870.376 203.856 864.424 219.294 852.52 229.338C840.802 239.568 824.899 244.683 804.811 244.683ZM802.858 179.676C819.226 179.676 832.99 174.003 844.15 162.657C855.496 151.311 861.169 136.152 861.169 117.18V115.227C861.169 95.8828 855.868 80.6308 845.266 69.4708C834.85 58.3108 821.458 52.7308 805.09 52.7308C788.35 52.7308 774.4 58.4038 763.24 69.7498C752.08 80.9098 746.5 96.0688 746.5 115.227V117.459C746.5 136.617 751.708 151.776 762.124 162.936C772.726 174.096 786.304 179.676 802.858 179.676ZM912.104 46.5928H921.59V80.0728C930.518 57.5668 947.351 45.9418 972.089 45.1978V53.8468C957.023 54.5908 944.84 59.5198 935.54 68.6338C926.24 77.7478 921.59 91.8838 921.59 111.042V192.51H912.104V46.5928ZM1010.22 168.237C1021.75 180.327 1035.98 186.372 1052.91 186.372C1069.83 186.372 1083.97 180.42 1095.31 168.516C1106.85 156.426 1112.61 140.43 1112.61 120.528V118.296C1112.61 98.3938 1106.85 82.4908 1095.31 70.5868C1083.97 58.6828 1069.92 52.7308 1053.18 52.7308C1036.44 52.7308 1022.22 58.7758 1010.5 70.8658C998.78 82.9558 992.921 98.8588 992.921 118.575V120.807C992.921 140.337 998.687 156.147 1010.22 168.237ZM1102.01 173.817C1088.43 187.767 1071.97 194.742 1052.63 194.742C1033.28 194.742 1016.82 187.767 1003.24 173.817C989.852 159.867 983.156 142.197 983.156 120.807V118.575C983.156 97.1848 989.945 79.5148 1003.52 65.5648C1017.29 51.6148 1033.84 44.6398 1053.18 44.6398C1072.53 44.6398 1088.9 51.5218 1102.29 65.2858C1115.68 78.8638 1122.38 96.5338 1122.38 118.296V120.528C1122.38 142.104 1115.59 159.867 1102.01 173.817ZM1203.85 194.742C1169.25 194.742 1151.95 176.049 1151.95 138.663V46.5928H1161.44V138.384C1161.44 170.19 1176.04 186.093 1205.24 186.093C1219.19 186.093 1231.37 181.629 1241.79 172.701C1252.21 163.773 1257.41 151.404 1257.41 135.594V46.5928H1266.9V192.51H1257.41V161.262C1253.88 170.748 1247.28 178.746 1237.61 185.256C1228.12 191.58 1216.87 194.742 1203.85 194.742ZM1308.84 46.5928H1318.33V86.7688C1322.61 75.0508 1330.14 65.0998 1340.93 56.9158C1351.9 48.5458 1364.18 44.3608 1377.76 44.3608C1395.99 44.3608 1411.33 51.1498 1423.79 64.7278C1436.25 78.3058 1442.49 96.1618 1442.49 118.296V120.528C1442.49 143.22 1436.35 161.262 1424.07 174.654C1411.8 188.046 1396.36 194.742 1377.76 194.742C1362.88 194.742 1350.32 190.743 1340.09 182.745C1329.86 174.561 1322.61 164.796 1318.33 153.45V243.288H1308.84V46.5928ZM1377.2 186.372C1393.57 186.372 1406.87 180.513 1417.1 168.795C1427.51 157.077 1432.72 141.081 1432.72 120.807V118.575C1432.72 98.1148 1427.33 82.0258 1416.54 70.3078C1405.94 58.5898 1392.73 52.7308 1376.92 52.7308C1361.3 52.7308 1347.63 58.6828 1335.91 70.5868C1324.19 82.4908 1318.33 98.4868 1318.33 118.575V120.807C1318.33 140.709 1324 156.612 1335.35 168.516C1346.7 180.42 1360.65 186.372 1377.2 186.372Z" fill="black"/>
</svg>
